# xmcd
# 
# Track frame offsets:
#     150
#     50647
#     104192
#     156920
#     256550
#     287652
# 
# Disc length: 4262
# 
# Revision: 6
# Processed by: cddbd v1.5.2PL0 Copyright (c) Steve Scherf et al.
# Submitted via: fre:ac v1.0.27
# 
DISCID=5210a406
DTITLE=Various Artist - ラフマニノフ：ピアノ協奏曲第2番、チャイコフスキー：ピアノ協奏曲第1番
DYEAR=2001
DGENRE=Classical
TTITLE0=Warsaw Philharmonic Orchestra - ラフマニノフ：ピアノ協奏曲第2番第1楽章：Moderato
TTITLE1=Warsaw Philharmonic Orchestra - ラフマニノフ：ピアノ協奏曲第2番第2楽章：Adagio sostenuto
TTITLE2=Warsaw Philharmonic Orchestra - ラフマニノフ：ピアノ協奏曲第2番第3楽章：Allegro scherzando
TTITLE3=Vienna Symphony Orchestra - チャイコフスキー：ピアノ協奏曲第1番第1楽章：Allegro non troppo e maestoso - Allegro con spirito
TTITLE4=Vienna Symphony Orchestra - チャイコフスキー：ピアノ協奏曲第1番第2楽章：Andantino semplice - Prestissimo - Tempo I
TTITLE5=Vienna Symphony Orchestra - チャイコフスキー：ピアノ協奏曲第1番第3楽章：Allegro con fuoco
EXTD=YEAR: 2001
EXTT0=
EXTT1=
EXTT2=
EXTT3=
EXTT4=
EXTT5=
PLAYORDER=
